<svg id="Layer_1" data-name="Layer 1" xmlns="http://www.w3.org/2000/svg" width="633.13" height="300.87" viewBox="0 0 633.13 300.87"><defs><style>.cls-1{fill:#050505;}.cls-2{fill:#bcbcbc;}.cls-3{fill:#fefefe;}.cls-4{fill:#c1c1c1;}.cls-5{fill:#fbfbfb;}.cls-6{fill:#c2c2c2;}.cls-7{fill:silver;}.cls-8{fill:#f7f7f7;}.cls-9{fill:#bebebe;}.cls-10{fill:#bfbfbf;}.cls-11{fill:#bdbdbd;}.cls-12{fill:#626262;}.cls-13{fill:#4f4f4f;}.cls-14{fill:#aeaeae;}.cls-15{fill:#535353;}.cls-16{fill:#8c8c8c;}.cls-17{fill:#363636;}.cls-18{fill:#151515;}.cls-19{fill:#313131;}.cls-20{fill:#1f1f1f;}.cls-21{fill:#5b5b5b;}.cls-22{fill:#080808;}.cls-23{fill:#0b0b0b;}.cls-24{fill:#787878;}.cls-25{fill:#454545;}.cls-26{fill:#020202;}.cls-27{fill:#161616;}.cls-28{fill:#4e4e4e;}.cls-29{fill:#868686;}.cls-30{fill:#a6a6a6;}.cls-31{fill:#636363;}.cls-32{fill:#1b1b1b;}.cls-33{fill:#3c3c3c;}.cls-34{fill:#585858;}.cls-35{fill:#4c4c4c;}.cls-36{fill:#676767;}.cls-37{fill:#8b8b8b;}.cls-38{fill:#404040;}.cls-39{fill:#686868;}.cls-40{fill:#3a3a3a;}.cls-41{fill:#575757;}.cls-42{fill:#4a4a4a;}.cls-43{fill:#5c5c5c;}.cls-44{fill:#6a6a6a;}.cls-45{fill:#eee;}.cls-46{fill:#e3e3e3;}</style></defs><title>snoot</title><path class="cls-1" d="M523.41,80c6.63-.49,13.11-2.12,19.83-2.13,9.73,0,19.1,2.48,28.65,3.64,2.47.3,4.88,1.05,7.33,1.52A50.43,50.43,0,0,1,612.5,104.7c4.53,6.56,9.64,12.76,12.89,20.14,5.46,12.37,7.31,25.18,4.39,38.51a10.83,10.83,0,0,0-.22,5.43,21.5,21.5,0,0,1,.72,10.36,3.52,3.52,0,0,0,.49,2.38c3.09,5.64,2.85,11.36.85,17.34-3.6,10.71-6.26,21.71-9.94,32.39a35.3,35.3,0,0,1-6.9,12.06c-6,6.68-12.44,12.71-20.52,17.21-15.32,8.54-31.79,13.38-48.56,17.78-12.71,3.33-25.41,6.68-38.25,9.45a387,387,0,0,1-45.34,6.66c-9.91.93-19.9,1.35-29.74,3.09a38.05,38.05,0,0,1-8,.45c-9-.34-17.94.85-26.92.85-10.66,0-21.35-.27-32,.53-9.49.72-19,0-28.41.81-12,1-24,.76-35.93.45-7.26-.19-14.59-.14-21.86-1.24-5.08-.77-10.3-.11-15.47-.46-13.26-.9-26.58-1.11-39.8-2.38-15.71-1.51-31.47-2.72-47-5.62-6.86-1.28-13.62-3.08-20.44-4.6-2.71-.6-5.28-1.54-8.25-1.16-1.82.24-3.91-.74-5.72-1.52-5.33-2.31-10.78-4.47-15.35-8.2a6.21,6.21,0,0,0-4.65-1.35c-10.21.76-20.2-1.45-30.3-2.22a4.17,4.17,0,0,1-1-.14c-12-4-24.49-6.51-35.45-13.1-6.47-3.89-12.12-8.72-15.69-15.66-5.55-10.78-4-21.32.9-31.69,4.46-9.48,11.85-16.41,20.59-21.88,4.92-3.08,9.71-6.49,15.3-8.37,1.47-.49,2-1.47,2.28-2.92C81.88,166.12,86.76,155,92,144a36.45,36.45,0,0,1,10.28-12.57l-5.59-6.76A84.61,84.61,0,0,0,85,135.64C76.52,145,66,151.3,54.64,156.25a35.58,35.58,0,0,1-8.16,2.24c-7.67,1.31-15.18,3.52-23.09,3.57a27.1,27.1,0,0,1-13.3-3.64c-1.32-.71-2.5-1.68-3.83-2.35-2.28-1.15-4.15-2.44-4.44-5.34-.16-1.62-2.61-2.56-1.58-5.48,5.36,7.1,12,11.27,20.7,12.12-6.13-3.39-9.79-8-8.21-15.67,2.36,1.49,3.45,3.92,5,5.89,2.94,3.75,6.27,6.83,10.92,8.36,7.24,2.38,13.47-.28,19.36-3.95a55.15,55.15,0,0,0,11.88-9.89c8.66-9.62,17.29-19.27,28.28-27.19-2.44-1.67-4.45-3.08-6.49-4.44A22.08,22.08,0,0,1,73,99.25C70.35,92,69.92,84.61,70.59,77.08A18.53,18.53,0,0,1,76.26,65.7a9.56,9.56,0,0,1,7.59-3.07c8.37.26,16.56-1.31,24.76-2.7a2.93,2.93,0,0,0,2.62-1.78C114.48,51.41,120,48,127.46,47.81c6.42-.19,11.86-2.91,16.9-6.59,7.4-5.4,14.77-10.7,23.34-14.32,14.31-6,28.33-5,42.19.84,4.38,1.85,8.4,3,13.2,2.06a46.26,46.26,0,0,1,21.29.84c3.33.92,6.21-.79,9.08-2Q269.85,21.95,286.14,15c13.41-5.71,27.6-8.42,41.81-11.16,7.41-1.43,14.91-1.18,22.35-1.89,4-.38,8-.44,11.85-1.52a17.3,17.3,0,0,1,4.46-.35c5,0,10,.06,15,0,17.55-.34,34.72,2.39,51.77,6.22,7,1.58,13.46,4.7,20,7.66a95.35,95.35,0,0,1,32.32,24.51,54.06,54.06,0,0,1,12.42,26.32c1,5.39,2.2,10.74,3.32,16.1-.06,1.46-.43,3,.58,4.43,4.25-1.13,8.53-2.25,12.78-3.42C517.63,81.07,520.68,81.3,523.41,80ZM101.26,111.94c-.22-.68-.08-1.86-1.33-1.37-1.8.71-3.64,1.44-4.77,3.18a113.79,113.79,0,0,0-22.48,19.66c-5.33,6-10.55,12-17,16.78-.65.48-1.26,1.18-.41,2.06.31,0,.68.19.92.08a70.94,70.94,0,0,0,21.61-15,188.58,188.58,0,0,1,22.54-20.43,8.76,8.76,0,0,0,4.62-2.33C104.35,112.69,102.95,112.11,101.26,111.94Zm-23,74.9c0-1.26.55-2.6-.48-3.72-4.05,1.46-15.83,9.05-19.63,12.65A45.66,45.66,0,0,0,48.74,206c-4.43,6.94-7.49,14.41-6.56,22.94-.87,6.08,1.94,11,5.09,15.75,4.78,7.16,11.73,11.88,19.5,15,11.69,4.76,23.58,8.83,36.25,10.6a148.43,148.43,0,0,0,47.23-.86c15.24-2.75,30-7.53,44.73-12.33,14.42-4.7,25.35-13.67,32.35-27.26,2.69-5.22,2.44-5.77-3.54-7.06a2,2,0,0,0-.5,0c-3.65-1.5-6.63.58-9.18,2.4-8,5.68-17,9.27-26.05,12.34a134.23,134.23,0,0,1-48.53,7.26c-18.53-.71-35.13-6.66-50.69-16.24-6.63-4.08-11.81-9.63-16.35-15.85,0-2.41-2.73-3.86-2.34-6.53A95.93,95.93,0,0,0,81,217.13c3.86,3.5,7.62,7.15,13.49,9.83a128,128,0,0,1-14.25-24c-.32-1.44-.63-2.89-1-4.32A2.25,2.25,0,0,0,77.57,197c-1.74-.55-3.47,1.08-4.44.87-2.24-.48-2.79.53-4.31,2.39,4.82-1,8.11,1,11.49,2.6-1.24,1.56-2.62.71-4,.28-6.8-2.05-8.17-1.49-12,4.77-1.85,1.69-2.6.4-2.6-1.22,0-1,1-1.93,1.5-2.89,1.19-.9,2.9-1.54,3.48-2.73,1.82-3.74,5.23-5.37,8.5-7.26,1.28,1.35,2.66,2.08,3-.53A44.85,44.85,0,0,0,78.21,186.84ZM269.34,85a24.57,24.57,0,0,0,.07-14.31A93.67,93.67,0,0,0,264.36,50c-2-5.2-5.16-9.65-10.07-12.54-11.77-6.95-24.32-8-37.44-4.86A102.32,102.32,0,0,0,192.35,42l-1-1c6.38-4.22,13.52-6.81,21.18-9.29-27.27-12.91-45.53-5.69-63.6,10l11.85,1.85a10.89,10.89,0,0,1-7.82.85A17.58,17.58,0,0,0,139.15,47c-5,3.24-9.95,6.56-14.92,9.84l-5.36,2.35c.86,1.06,2.67.68,2.37,2.61a61.49,61.49,0,0,0-19.77,1.05,69.34,69.34,0,0,1-17.28,1.59,6.48,6.48,0,0,0-5.65,2.15c-5.43,6-6,13-4.36,20.49l.23,1.82.92,5.9c.11,3.54,1.7,6.45,3.88,9.11l2.08,2c2.4,3.22,5.74,5.17,9.2,7.08,1.71-2.31-1.11-4.4.35-6.75s4.11-1.81,5.86-3.94c-2.23-1.67-2.12-4.37-3.32-6.51-.24-4.13-1-8.28.64-12.39,1,3.78.18,7.78,1.41,11.5,1,4.8,2.6,9,7.73,11.16,1.89.78,3.38,2.63,4.93,4.13,7.91,7.62,17.52,11.69,28.18,13.6,9.08,2.4,17.88,2.12,26.21-2.73l1.72-.4c5.62-1.46,11.13-3.32,16.87-4.29a11.54,11.54,0,0,1,6.4.17c-10.44,2.12-20.47,4.84-30,9.18a25.62,25.62,0,0,1-13.18,1.93c-5.27-.53-10.53-1.21-15.8-1.83-5.63-2-11.23-4.09-16.17-7.43-3.45-2.33-6.11-1.55-9,.64-3.27,2.49-3.39,4.18-.18,6.55a38,38,0,0,0,11.26,6.14c14.92,4.73,29.85,7.33,45.33,2.12,7.34-2.47,15-3.94,22.55-5.86a43.29,43.29,0,0,0,6.44-.66,75.3,75.3,0,0,1,23.37.36,38.38,38.38,0,0,0,10.83.85c3.82-.41,7.64-.49,11.46-.78,8.8-.65,16.91-3.16,24-8.72,5.77-4.52,6.36-10.72,7-17.11-2.14-.43-3.16,1.84-5.15.86,6-4.57,8.59-10.62,9.09-17.73ZM201.15,257.8h0c-8.44,2.53-16.86,5.12-25.32,7.58-11.82,3.43-23.61,7-36,7.67-2.7.15-5.37.78-8,1.19l-.19,1c5.39,2.37,10.68,4.94,16.41,6.57,7.85,2.23,16,3,23.88,5.12,12.6,3.42,25.55,4.33,38.42,5.77,10.4,1.16,20.88,1.68,31.32,2.53,15.93,1.29,31.89,1.91,47.82,2.29,24.95.59,49.91.56,74.88-.41,13-.51,26-.6,38.94-1,7.65-.22,15.31.06,23-.7,9.75-1,19.53-1.69,29.29-2.63,8.27-.8,16.55-1.52,24.76-2.69q16.29-2.34,32.34-6.07c18.62-4.35,37.25-8.72,55.4-14.72,14.58-4.81,28.5-11.13,38.9-23.26,3.83-4.47,7.16-9.11,9.25-14.65,3.58-9.5,5.39-19.56,9.37-28.94a21.29,21.29,0,0,0,1.5-8.89c-1.86,1.67-1.9,3.63-2.56,5.29-.49,1.23-.63,2.62-2.24,3l.08.07c1.44-7.4,2.8-14.82,4.34-22.2.67-3.21.59-6.19-1.24-9l-.3-1.78c.13-6.82.38-13.63.36-20.45,0-9.17-2.78-17.62-7.18-25.59-3.14-6.27-7.53-11.72-11.52-17.42A47.19,47.19,0,0,0,579.26,86.2c-6.24-1.59-12.56-3.28-19-3.73-5.16-.35-10-2.34-15.19-2.51a79.35,79.35,0,0,0-18.74,2,97.71,97.71,0,0,0-18.51,3.82c-6.24,1.77-6.18,1.88-6.35,8.49a44.59,44.59,0,0,1-.49,6.47,15.88,15.88,0,0,0-.18,6.86,57.91,57.91,0,0,1,15.75-6.24c1.92-.44,4-.34,5.75-1.52,2.07.37,4.22-.73,6.74.54-4.93,2.34-10.23,2.19-14.77,4.39-4.77.65-8.56,3.49-12.66,5.65-1.52.8-2.42,2.14-1.8,3.66.51,1.27,2.06.54,3.17.51a6.06,6.06,0,0,0,3.35-.82c1.33-.05,2.67,0,4-.17,12.11-1.68,24.21-1.12,36.3.08,1.34.13,3.12-.26,3.83,1.72-5,0-10,.35-14.91-.07A110.33,110.33,0,0,0,504.29,117a22.07,22.07,0,0,0-11.73,1.25c-4.5,1.65-9.07,3.08-13.72,4.34-11.21,3-22.4,6.22-33.46,9.77a400.07,400.07,0,0,1-40.79,11c-5.17,1.07-10.47,1.53-15.44,3.46l-37.88,4.11a129.26,129.26,0,0,1-12.93-.71c-8.12-.9-16.09-2.51-24.08-4.08a196.67,196.67,0,0,1-43.56-14A22.83,22.83,0,0,0,263,129.9c-.64,2-1.19,3.95-1.84,5.82a14.06,14.06,0,0,1-2.18,4.46c-.52.64-1,1.42-2,1a2.08,2.08,0,0,1-1.15-2.07,10.32,10.32,0,0,1,.76-2.86c.67-1.8,1.43-3.58,2.15-5.36a33.69,33.69,0,0,1-9.45,4.49,7.48,7.48,0,0,0-3.75,3.18,28.13,28.13,0,0,0-4.22,8.4c-1.44,1.3-1.11,3.79-3.13,4.72-2.26-1.42-1.69-3.7-1.89-5.74a27,27,0,0,0,1.4-2.6c2.2-5.37,5.67-9.33,11.58-10.68a8.82,8.82,0,0,0,2.29-1c.88-.49,1.87-1.18,1.58-2.28-.36-1.42-1.73-1.4-2.89-1.23A4.74,4.74,0,0,0,248,129c-3.56,3-8,3.5-12.21,3.46-7.3-.07-14.17,1.73-21,3.6-8.32,2.27-15.85,6-20.57,13.77-4.19,5.14-6.34,11.43-9.82,17.93-.27-5.79,2.08-10.18,2.91-14.86,7.13-13.15,19.66-17.85,33.44-20.62-.42-.63-.5-.85-.57-.85a106.81,106.81,0,0,1-25.18-2.35,18.89,18.89,0,0,0-7.44.26c-10.28,1.94-20.59,3.78-30.47,7.42-1.4.51-2.91.69-4.35,1.1-5.06,1.44-10.27.43-15.38,1-8.77-.88-17.52-1.89-25.87-4.93-5.83-2.12-7.35-2-11.1,3-5.65,7.49-9,16.17-12.12,25a65.65,65.65,0,0,0-5.14,16.59c-1.25,6.84-2.14,13.73.19,20.69a100.19,100.19,0,0,0,13.58,26.48c2,2.79,4.07,5.69,7.56,7s6.75,2.8,10.13,4.21c11.78,4.92,24.2,5.78,36.72,5.45A65.34,65.34,0,0,0,168.43,240c14.78-1.83,28.19-7.41,40.72-15.19,6.86-4.26,13.86-6.37,21.71-3.26,3.11,1.23,3.51,2.17,2.44,5.34a11.72,11.72,0,0,1-.81,1.82c-4.45,8.28-9.77,15.83-17.59,21.36-4,2.8-8.4,4.71-12.62,7A1,1,0,0,0,201.15,257.8Zm73-176.08c-1.29,4.61-2.05,9.4-4.52,13.63-1.69,2.9-4,5.7-1.44,9.33.32.44.06,1.3.06,2,0,6.11-2.37,10.94-7.63,14.26-2,1.27-4,2.65-6.7,4.49,1.86.11,2.67.18,3.47.21,4,.14,8.07-.27,11.75,1.65a160.57,160.57,0,0,0,15.1,6.55c19.14,7.6,39.06,11.87,59.47,14.07,12.39,1.34,24.5-1.57,36.72-2.66a155.17,155.17,0,0,0,19.62-3.45c9.56-2.11,19.23-3.82,28.56-6.86,11.86-3.86,23.76-7.56,35.76-10.92,9.6-2.69,19.2-5.38,28.85-7.87,2.36-.61,3-1.61,3.35-4,.81-5.28.92-10.6,1.35-15.89a69,69,0,0,0-2.54-25.55c-1.62-13.85-6.9-25.9-17.46-35.33-.49-.44-.86-1-1.31-1.5-4.79-5.14-10.63-9.05-16.3-13-4.71-3.3-10.25-5.46-15.55-7.86-15.25-6.9-31.6-9.23-48-9.84-14.42-.54-28.91-.78-43.37.5-8.92.79-17.91.66-26.76,2.37-11.57,2.24-23.16,4.36-34.22,8.6-11.79,4.51-23.2,9.94-35.08,14.25-2.52.91-5.32,1.45-7.88,3.46a31.4,31.4,0,0,1,14.87,9.49c1.9,2.07,3.78,4.18,6.47,5.38a45.87,45.87,0,0,1,11.15,7.49c5,4.28,10.66,7.31,16.3,10.47,3,2.84,7.11,3.37,10.66,5.06,13.26,6.32,27.27,10.3,41.66,13.07a36.75,36.75,0,0,0,6.43.64c14.42.22,28.37-2.4,42.1-6.64a8.89,8.89,0,0,0,6.55-6.65,46.92,46.92,0,0,1,16.11-24c.9-.72,1.71-1.54,2.57-2.31,2.35-.79,4.06-3.09,7.85-3.33-4.34,3.57-8.05,6.31-10.88,10a36.6,36.6,0,0,0-12,20c-1.66,4.35-4.77,6.82-9.28,8.17-9.23,2.76-18.46,5.57-28.07,6.49-9.25.89-18.57,1.55-27.77-.65A232.12,232.12,0,0,1,305,71.9a112.56,112.56,0,0,1-27.23-16.28c-2.53-2.1-5-4.45-9.06-6C272.31,60.69,274.73,71,274.13,81.72Z"/><path class="cls-2" d="M523.41,80c-2.72,1.31-5.78,1.08-8.62,1.86-4.26,1.18-8.54,2.29-12.78,3.42-1-1.48-.65-3-.58-4.43,1.07,1.39,2.22,2.48,4.17,1.45.58-.31,1.29-.35,1.9-.6C512.63,79.55,517.83,78.05,523.41,80Z"/><path class="cls-3" d="M351.26,150.91l37.88-4.11c6.7.66,13.16-.89,19.73-1.8,9.52-1.32,18.94-3.11,28.35-5,11.23-2.2,21.94-6.25,32.89-9.43,2.87-.83,5.84-2.53,9.06-1-1.16.87-3.07,1-3.28,3.35,6.56-2.57,12.17-6.41,18.33-9.11,4-1.38,7.68-3.13,10.07-6.83a110.33,110.33,0,0,1,31.18-1.65c4.92.42,9.9.07,14.91.07-.7-2-2.49-1.58-3.83-1.72-12.09-1.2-24.19-1.76-36.3-.08-1.31.18-2.65.12-4,.17,1-2.49,2.38-4.5,5.25-5.28a3.88,3.88,0,0,0,2.69-3.72c4.54-2.2,9.83-2.06,14.77-4.39-2.53-1.27-4.68-.17-6.74-.54a21.53,21.53,0,0,0,1.27-2.68c1.26-4,4-7.73,1.44-12.22-.71-1.23.88-2,1.33-3A79.35,79.35,0,0,1,545,80c5.18.17,10,2.16,15.19,2.51,6.48.44,12.8,2.13,19,3.73a47.19,47.19,0,0,1,27.49,19.25c4,5.7,8.38,11.15,11.52,17.42a8.16,8.16,0,0,1-.1,2.47q-4.18,11.4-8.52,22.74a6.69,6.69,0,0,1-3.8,4.1c-.82-1.17-.5-2.55-1.53-3.33a24.54,24.54,0,0,0-6.48-8.69,118.44,118.44,0,0,0-28.76-18.44,6.49,6.49,0,0,0-3.84-.74l-.11-.23.17.15a41.34,41.34,0,0,0,4.17,2.68,139.62,139.62,0,0,1,20.26,12.62c5.25,3.8,10.35,7.81,13.51,13.7,1.53,3.12,1.44,5.89-1,8.68-3.07,3.46-5.9,7.15-8.63,10.88a27,27,0,0,1-6.62,6.64c-2.35,1.59-4.62,3.31-7.29,5.23a4,4,0,0,0,3.81-.63,42.4,42.4,0,0,1,10.09-4,45.76,45.76,0,0,0,18.9-10.36c2.76-2.59,5.76-5,8.46-7.66.67-.67,1.34-1.71,2.48-1.19s.78,1.69.87,2.65c.25,2.91-1,6,.82,8.73l.3,1.78c0,4.5-.82,8.57-5.53,10.74s-8.74,5.4-12.86,8.43a128.29,128.29,0,0,1-19.83,12.27c-5.18,2.52-10.61,4.74-15.29,8s-9.16,6.57-13.72,9.81a159.19,159.19,0,0,1-31.76,17.52c-10.26,4.21-21.11,7-31.63,10.55-4.53,1.55-9.49,1.85-13.58,4.65-2.23.55-4.44,1.23-6.69,1.64-8.07,1.45-15.88,4.23-24.15,4.64-2,0-4-.16-6,0-11.07,1.15-22.17,1.7-33.28,1.83-10.15.12-20.31,0-30.46,0a59.67,59.67,0,0,1-8-.1c-10.69-1.46-21.49-1.66-32.22-2.58-9.72-.84-19.53-1.88-29.36-1.32-1.81.1-3.63,0-6.07,0,1.56-1.48,3.93-.29,4.44-3.1-8.12,0-16.09.24-24-.07s-15.93-1.75-23.92-2.52c3.17,2.23,7.11,1.74,11.11,3.64-15.65.17-30.61-.38-45.53,1q-8.91.82-17.79,1.76c-2.64.27-5.37,2.12-8.1.22h0a1.13,1.13,0,0,0,1.14-.69c4.21-2.33,8.65-4.24,12.62-7,7.82-5.53,13.14-13.08,17.59-21.36a11.72,11.72,0,0,0,.81-1.82c1.06-3.18.67-4.11-2.44-5.34-7.86-3.1-14.86-1-21.71,3.26-12.53,7.78-25.94,13.35-40.72,15.19-.58-.25-1.45-.24-1.56-1-.55-3.87-3.13-4.84-6.6-5.4-7.81-1.26-15.6-2.71-23.46-3.66a8,8,0,0,1-2.9-.49c-7.23-4.15-15.57-6.11-22-11.94-3.11-2.81-4.3-6.12-5.57-9.67,11.94,7.12,24.4,12.94,38.16,15.54A103.26,103.26,0,0,0,134,219.06c-10.9-4.13-21.62-8.61-30.79-16.06-2.39-3.71-2.35-8.22-4.09-12.16A54.11,54.11,0,0,1,95.18,176c-.43-3.2-1.48-6.24-4.22-8.17a6.41,6.41,0,0,1-2.75-6c3.09-8.78,6.47-17.46,12.12-25,3.75-5,5.28-5.12,11.1-3,8.35,3,17.1,4,25.87,4.93-.7,1.59-2.21,1.75-3.64,2.24-3.61,1.26-7.25,2.62-9.7,5.82s-2.08,5.58,1.2,8a13.9,13.9,0,0,0,7.3,3A48.24,48.24,0,0,0,148.71,156c4.61-1.3,9.32-2.38,13.83-4.08a23.7,23.7,0,0,1,12.33-.82c3.49.57,6.89,1.12,10.36.26,1.39-.34,1.76.44,2,1.5-.83,4.68-3.18,9.07-2.91,14.86,3.47-6.5,5.62-12.79,9.82-17.93a120.21,120.21,0,0,0,13.71-1.28c3.93-.52,7.91-.16,11.77-1a61.52,61.52,0,0,1,16.64-1.65c.2,2-.36,4.32,1.89,5.74,2-.93,1.69-3.42,3.13-4.72A121.82,121.82,0,0,0,265,149c.56.84.82,2.45,2.33.95,2.79-1.43,5.71-.38,8.22.36,11.75,3.45,24,2.81,35.93,4.37,10.5,1.37,21.18-.39,31.61-2.33C345.8,151.81,348.82,152.95,351.26,150.91ZM448,142.66c-.82.13-1.66.19-2.47.39-31.47,7.83-63,15-95.65,16.25-4.88.18-9.76.59-15.27.94a9.11,9.11,0,0,0,1.58.53,218,218,0,0,0,44.3-2.17,559.89,559.89,0,0,0,68.6-14.91c4.76-1.2,9.67-1.9,14-4.4C458,139.91,452.86,140.55,448,142.66Z"/><path class="cls-3" d="M421.27,50.91c2.82-3.66,6.54-6.4,10.88-10-3.79.24-5.5,2.53-7.85,3.33,0-1.65,0-3.31-.1-5-.08-1.94-1.28-2.78-3-2.2-3.56,1.21-7.51,1.7-10.27,4.63-2.94,3.12-6.14,6-8.92,9.29-1.76,2.1-3.4,4.82-6.78,4.83C398,50.26,403,46,406,39.46A33.15,33.15,0,0,0,391,54.8a10.22,10.22,0,0,0-9.25,5.33,10.48,10.48,0,0,1-3.11,3.71c-1.18.76-1.21-.41-1.47-1.1.53-3,3-5.32,3.37-9.37-5.07,3.4-7,8.07-9.35,12.48-1.46.27-2.68-.51-4-.93-2,0-2.22,1.75-3.06,2.91-4.27,1.09-8.58,2-12.68,3.71-2.16.91-4.16,0-5.77-1.76a16.75,16.75,0,0,0-5.76-4.61,77.25,77.25,0,0,0-17.32-5.35c-1.77-.29-3.74-.3-4.2-2.67l26.85-3.37c-10.86-.95-21.43.54-31.86,3.19-3.94,1.17-8,1.35-12.09,1.94-2.27.33-3.77,1-3.12,3.76a11.18,11.18,0,0,1,0,2.46c-5.64-3.16-11.34-6.19-16.3-10.47a45.87,45.87,0,0,0-11.15-7.49c-2.69-1.2-4.57-3.31-6.47-5.38a31.4,31.4,0,0,0-14.87-9.49c2.56-2,5.36-2.54,7.88-3.46,11.88-4.3,23.29-9.74,35.08-14.25C303.44,10.35,315,8.22,326.6,6c8.86-1.71,17.84-1.59,26.76-2.37,14.46-1.27,28.95-1,43.37-.5,16.44.61,32.79,2.95,48,9.84,5.3,2.4,10.84,4.56,15.55,7.86,5.67,4,11.5,7.89,16.3,13,.45.49.82,1.06,1.31,1.5,10.56,9.44,15.84,21.48,17.46,35.33-.44,2.38-.28,4.89-4.32,4.09-2.3-.46-4,2.65-3.44,5.5.32,1.65.9,3.2,0,4.83-4,7.51-4.31,16.33-8.38,23.85-1.75,3.24-3.14,6.55-7.23,7.52-10.17,2.43-20.31,5-30.47,7.4-13.07,3.13-26.42,4.73-39.68,6.77-4.08.63-8.31,1.3-12.36.9-9.4-.92-18.83-1.94-28.22-2.39-11-.53-21.73-2.67-32.63-3.57a45.93,45.93,0,0,1-11.75-2c-9.38-3.35-18.94-6.1-28.53-8.75l-.07-.06c-.19-1.79-.08-3.56-1-5.28a28.18,28.18,0,0,1-3.15-10.85c-.54-4.84-2-9.37-6.59-12.21a7,7,0,0,1-3.43-4.68c.59-10.75-1.83-21-5.38-32.09,4,1.54,6.53,3.89,9.06,6A112.56,112.56,0,0,0,305,71.9a232.12,232.12,0,0,0,39.14,13c9.2,2.2,18.52,1.54,27.77.65,9.6-.93,18.83-3.74,28.07-6.49,4.51-1.35,7.62-3.81,9.28-8.17A53.8,53.8,0,0,0,421.27,50.91ZM361,63a46.33,46.33,0,0,1-11.5-1.8c-7.42-2.06-7.92-2.05-10.45-1C357.75,65.06,357.75,65.06,361,63Z"/><path class="cls-4" d="M201.15,257.79c2.73,1.9,5.45.06,8.1-.22q8.89-.92,17.79-1.76c14.92-1.37,29.87-.81,45.53-1-4-1.9-7.94-1.42-11.11-3.64,8,.77,15.92,2.21,23.92,2.52s15.91.07,24,.07c-.52,2.81-2.88,1.61-4.44,3.1,2.44,0,4.26.09,6.07,0,9.83-.56,19.64.48,29.36,1.32,10.73.93,21.53,1.13,32.22,2.58a59.67,59.67,0,0,0,8,.1c10.16,0,20.31.08,30.46,0,11.12-.13,22.22-.68,33.28-1.83,2-.2,4,0,6,0-3.07,1.4-6.42,1.45-9.67,1.9-9.05,1.27-18.12,2.44-27.22,3.38-10.92,1.13-21.84,2.2-32.8,2.53-20.14.61-40.3-.25-60.46.77a297.84,297.84,0,0,1-57.8-2.39c-3.22-.47-6.55-.5-9.85-.77a2.92,2.92,0,0,0,1.78,1.14c11.85,1.56,23.67,3.72,35.67,3.59,31.13-.36,62.27.31,93.41-.91,14.48-.57,28.85-2.05,43.21-3.62a402.5,402.5,0,0,0,51.94-9.39c21.78-5.33,43.39-11.29,64.63-18.63,23.37-8.08,44.59-19.91,64.32-34.62a45.33,45.33,0,0,0,5.16-4.71c.73-.74,1.88-1.52,1-3.35a55.94,55.94,0,0,1-7.78,6.94c-9.68,6.46-19,13.41-29.31,19a256.31,256.31,0,0,1-33.17,15c-14.21,5.29-28.84,9.1-43.41,13.15-6.24,1.73-12.3,4.1-18.81,4.75,4.1-2.8,9.06-3.1,13.58-4.65,10.52-3.6,21.37-6.34,31.63-10.55A159.19,159.19,0,0,0,558.15,220c4.55-3.24,9.13-6.61,13.72-9.81s10.11-5.49,15.29-8A128.29,128.29,0,0,0,607,189.86c4.12-3,8.18-6.26,12.86-8.43s5.48-6.24,5.53-10.74c1.83,2.8,1.91,5.78,1.24,9-1.54,7.38-2.9,14.8-4.34,22.2a6.49,6.49,0,0,0-.59.62c0,.06.06.23.09.35l.41-1c1.61-.34,1.75-1.74,2.24-3,.66-1.66.7-3.62,2.56-5.29a21.29,21.29,0,0,1-1.5,8.89c-4,9.38-5.8,19.44-9.37,28.94-2.09,5.54-5.41,10.18-9.25,14.65-10.4,12.13-24.32,18.45-38.9,23.26-18.15,6-36.78,10.37-55.4,14.72q-16.06,3.75-32.34,6.07c-8.21,1.18-16.5,1.9-24.76,2.69-9.76.94-19.54,1.66-29.29,2.63-7.64.76-15.31.48-23,.7-13,.37-26,.47-38.94,1-25,1-49.93,1-74.88.41-15.93-.38-31.89-1-47.82-2.29-10.44-.85-20.91-1.37-31.32-2.53-12.87-1.44-25.82-2.35-38.42-5.77-7.85-2.13-16-2.89-23.88-5.12-5.73-1.63-11-4.2-16.41-6.57l.19-1c2.68-.41,5.35-1,8-1.19,12.41-.71,24.21-4.24,36-7.67C184.3,262.91,192.72,260.32,201.15,257.79Z"/><path class="cls-3" d="M192.35,42a102.32,102.32,0,0,1,24.5-9.42c13.12-3.14,25.67-2.09,37.44,4.86,4.91,2.89,8.06,7.35,10.07,12.54a93.67,93.67,0,0,1,5.06,20.7L269.34,85v0a3.51,3.51,0,0,1-1.09-2.67c-.16-1.4.59-3.29-1.19-4s-2.82,1.32-4.17,2.15a3.29,3.29,0,0,0-1.63,2.9,3.48,3.48,0,0,1-1.84,3.31c-3.69,1.81-7.07,4.44-11.52,4.23a15.43,15.43,0,0,0-7.63,2c-2.17,1.09-2.08,2.23.09,3.49a10.35,10.35,0,0,0,8.64,1c2.51-.8,5.12-1.37,7.38-2.9.88-.6,2-1.15,3.21.36-2.47,1.79-3.88,4.41-5.64,6.76s-5.08,3.06-7.5,4.78a11.18,11.18,0,0,0-1.87,1.63c-1.65,1.85-3.26,3.31-5.67.94-.38-.38-1.25.15-1.73.66a141.06,141.06,0,0,1-23.06,5.45,26.08,26.08,0,0,1-6.37.39c-4.09-.41-8.17-1-12.25-1.5-3.18-1.22-6.5-1.14-9.82-1.15-2.76,0-5.55-.43-6.4-3.59-1-3.9-3.65-4.67-7.18-4.42-3.29.24-6.64-.33-9.89.76a4.2,4.2,0,0,1-2.44-.1c-4.73-1.51-9.5-.18-14.22-.07-2.69.06-4.7-.16-5.75-2.59-1.93-4.45-5.51-5.76-9.93-6a21.3,21.3,0,0,1-5.34-1.12c-3.41-1.14-3.76-3-1.19-5.39A8.33,8.33,0,0,1,127.7,88c1.65-.27,3.37-.25,3.52-2.62.13-2.09-.52-3.69-2.62-4.21a5.84,5.84,0,0,1-4.15-3.91A6.9,6.9,0,0,0,119,72.77c-3.27-.69-4-1.85-3.66-4.27s1.43-3.34,4.44-3.61c.5,0,1,0,1.49,0,2.86-.33,4.08-1.77,3.78-4.66a24,24,0,0,0-.83-3.37c5-3.28,9.92-6.61,14.92-9.84a17.58,17.58,0,0,1,13.78-2.65,10.89,10.89,0,0,0,7.82-.85l-11.85-1.85c18.07-15.65,36.33-22.87,63.6-10-7.66,2.48-14.8,5.07-21.18,9.29-3.62,1.65-6.33,4.53-9.42,6.9C186.15,47.2,189.11,44.34,192.35,42Zm-35,31.81c-2.82-2.6-6.33-3-9.89-3.3,2.7,1.95,6.19,2.23,8.68,4.5,3,2.65,4.06,6.81,7.64,10.19-.2-4.76-3.7-7-4.6-10.37,1.68.53,2.33,2.15,3.45,3.27.58.58,1.2.35,1.71-.11s.76-1.49.24-1.65c-1.76-.53-3-3.05-5.35-1.42Zm37.2-7.57a14.29,14.29,0,0,0-5.35.92c-4.87,1.6-9.14,4.11-10.66,9.5a15.9,15.9,0,0,0,13.67,19.84,20.37,20.37,0,0,0,10.65-1.92c10.85-5.15,12.66-16.87,3.86-24.73C203.55,67,199.63,66.45,194.56,66.21Zm-29.74,4.52c7-.28,12.65-4,14.83-9.64.76-1.94.54-2.6-1.92-5,.69,6.95-3.13,10.27-8.82,12.26C167.57,68.79,165.91,68.86,164.82,70.73ZM202,97.11l.58.92c2.41-.64,5.09-.74,7.21-4.45Z"/><path class="cls-4" d="M288.41,114.8c9.59,2.65,19.15,5.41,28.53,8.75a45.93,45.93,0,0,0,11.75,2c10.91.9,21.65,3,32.63,3.57,9.39.45,18.82,1.48,28.22,2.39,4.06.4,8.28-.28,12.36-.9,13.26-2,26.61-3.64,39.68-6.77,10.17-2.43,20.3-5,30.47-7.4,4.09-1,5.47-4.28,7.23-7.52,4.07-7.53,4.36-16.34,8.38-23.85.87-1.63.3-3.19,0-4.83-.55-2.84,1.14-6,3.44-5.5,4,.8,3.88-1.7,4.32-4.09a69,69,0,0,1,2.54,25.55c-.43,5.29-.54,10.61-1.35,15.89-.36,2.38-1,3.38-3.35,4-9.65,2.48-19.25,5.18-28.85,7.87-12,3.37-23.91,7.07-35.76,10.92-9.32,3-19,4.75-28.56,6.86a155.17,155.17,0,0,1-19.62,3.45c-12.22,1.08-24.34,4-36.72,2.66-20.41-2.21-40.33-6.47-59.47-14.07a160.57,160.57,0,0,1-15.1-6.55c-3.69-1.92-7.77-1.51-11.75-1.65-.81,0-1.61-.1-3.47-.21,2.74-1.84,4.68-3.22,6.7-4.49,5.25-3.32,7.62-8.15,7.63-14.26,0-.66.26-1.52-.06-2-2.61-3.62-.25-6.43,1.44-9.33,2.46-4.23,3.23-9,4.52-13.63a7,7,0,0,0,3.43,4.68c4.55,2.83,6,7.36,6.59,12.21a28.18,28.18,0,0,0,3.15,10.85c1,1.72.85,3.49,1,5.28-2-1.49-3.88-3.1-6-4.45-2.73-1.77-4.9-4.42-8.17-5.36q.09-.62-.38-.57c0,.11,0,.27,0,.32a1.55,1.55,0,0,0,.42.18c.76,2,2.42,3.1,4,4.29a47.61,47.61,0,0,1,8.54,7.63c5.87,7.13,13.55,11,22.32,13.19A37.4,37.4,0,0,0,326,132.9L311.14,129C302.43,126.09,294.43,122,288.41,114.8Zm2,14c.77,2,1.39,4.14,3.93,6a13.71,13.71,0,0,0-2.94-7c-.21-2.81-1.83-4.94-3.46-7.08A16.77,16.77,0,0,0,290.38,128.8Zm-18.57-21.6-1,.32,7.22,21.6,1.11-.37C278.38,121,275.58,113.93,271.8,107.19Z"/><path class="cls-3" d="M42.18,228.91c-.93-8.54,2.13-16,6.56-22.94a45.66,45.66,0,0,1,9.36-10.19c3.61,1.46,4,5,5.11,8-.53,1-1.5,1.93-1.5,2.89,0,1.62.75,2.91,2.6,1.22a4.37,4.37,0,0,1,4.13,2.95c.69,1.92,2.3,2.13,4.06,1.88,4.54,6.22,9.72,11.77,16.35,15.85,15.57,9.58,32.17,15.53,50.69,16.24a134.23,134.23,0,0,0,48.53-7.26c9.09-3.07,18.07-6.66,26.05-12.34,2.55-1.82,5.53-3.9,9.18-2.4-.36.34-.67.84-1.09,1-4.84,1.61-9.17,3.81-11.35,8.85-.25.57-.89,1-1.37,1.43a74.91,74.91,0,0,1-21.37,14.34c-5.64,2.43-11.5,4.33-17.19,6.64a156,156,0,0,1-57.6,12c-6.4.06-11.91-1.76-17.61-4.1-11.95-4.9-22.29-12.47-32.95-19.48a96.83,96.83,0,0,1-11.12-8.38C48.88,232.63,46.11,229.76,42.18,228.91Z"/><path class="cls-5" d="M124.23,56.83a24,24,0,0,1,.83,3.37c.3,2.88-.92,4.33-3.78,4.66-.49.06-1,0-1.49,0-3,.26-4.11,1.16-4.44,3.61s.4,3.58,3.66,4.27a6.9,6.9,0,0,1,5.44,4.52,5.84,5.84,0,0,0,4.15,3.91c2.1.52,2.75,2.11,2.62,4.21-.15,2.37-1.87,2.34-3.52,2.62a8.33,8.33,0,0,0-4.35,2.29c-2.58,2.41-2.22,4.26,1.19,5.39a21.3,21.3,0,0,0,5.34,1.12c4.42.28,8,1.59,9.93,6,1,2.42,3.06,2.65,5.75,2.59,4.72-.11,9.49-1.45,14.22.07a4.2,4.2,0,0,0,2.44.1c3.25-1.09,6.59-.52,9.89-.76,3.52-.26,6.13.52,7.18,4.42.85,3.15,3.64,3.58,6.4,3.59,3.33,0,6.65-.07,9.82,1.15-.57.82-2,.45-2.34,1.64,6.7.54,13.17,3,20,2.17,0,.3.2.82.12.86-3.39,1.62-6.59,3.61-10.68,3.26-5.91-.5-11.37,1.73-16.9,3.36a4.78,4.78,0,0,0-3.45,2.61c-7.53,1.92-15.21,3.39-22.55,5.86-15.48,5.21-30.41,2.61-45.33-2.12a8.94,8.94,0,0,0,.89-4.29c0-2.4,1.17-3.18,3.48-2.57a23.78,23.78,0,0,0,9.7,1c5.26.62,10.52,1.3,15.8,1.83a25.62,25.62,0,0,0,13.18-1.93c9.58-4.33,19.61-7.06,30-9.18a11.54,11.54,0,0,0-6.4-.17c-5.74,1-11.26,2.83-16.87,4.29-.51-5.07-3.13-7.63-8.39-7.06-.3,0-.63-.19-1-.27-6.27-1.45-12.47-.81-18.62.71-1.9.47-2.41,2-.95,3.25,3.18,2.81,7,5.2,11.24,4.2,4.9-1.17,9.86,1,14.6-1,.32-.13.9.35,1.35.55-8.33,4.85-17.13,5.14-26.21,2.73a29.57,29.57,0,0,0-9.81-10.35c-2.06-1.4-4.15-2.73-6.18-4.17-1.49-1.06-2.43-2.34-.94-4.13,5.3-.33,5.31-.34,5.95-4.3-1.75,3.32-6,1.08-7.87,4.08a5.32,5.32,0,0,1-3.45-1.78A37.57,37.57,0,0,1,107,94.63a7,7,0,0,1,3.3-2c2-.79,2.22-2.31,1-4A9.74,9.74,0,0,0,109,86.07c-2.08-1.35-6.42-.43-7.1,1.54-.78,2.25.75,3.24,2.51,4,1.65-1.13-1.32-3.49,1.37-4.15s3.54.92,4.29,3.11l-5,3.3c-3.23.38-6.29,2.35-9.7,1C94.2,91.13,95,87.13,94,83.35c-1.64,4.11-.87,8.26-.64,12.39-.93,2-2.93,2.53-4.66,3.4-3.11,1.56-6,3.36-7.43,6.72l-2.08-2c-.07-1.54,1.38-2.72.52-4.61-1.3-2.88-1-3,2.18-4.16-2.09-2.88-4.41-.44-6.59-.34l-.92-5.9h9.81c-1.08,3.79-.87,4,3.8,3.66-.31-1.68-3.32-1.37-2.72-3.68l-.09.08c2-.82,3.4,1.56,5.71,1.37-1.26-2.54-3-3.45-5.32-3.26-2.22-4.34-1.67-4.84,2.88-5.49a120.78,120.78,0,0,1,13.27-.69,8,8,0,0,0,3.74-1.14,1.68,1.68,0,0,0,1-1.52c0-1.63-3.14-5-4.86-4.82-2.88.39-3.87-1.09-4.42-3.42,1.73-.24,3.25.5,4.83,1,6.44,2,11.82,6,17.47,9.47,1.23.76,2.28,2.18,4.14,1.58-8.75-7-17.82-13.22-29.44-14.3-.1-.29-.15-.79-.31-.83-.68-.17-.56.45-.67.83-2.44.35-4.74,1.34-7.25,1.4a4.56,4.56,0,0,0-2.67,1.1c-.38.33.51.55.91.72a6.7,6.7,0,0,1-2.78,3.33c-5.15,2.71-7.48,7-7.3,12.81-1.67-7.49-1.07-14.51,4.36-20.49a6.48,6.48,0,0,1,5.65-2.15,69.34,69.34,0,0,0,17.28-1.59,61.49,61.49,0,0,1,19.77-1.05c.31-1.93-1.51-1.55-2.37-2.61Zm31.28,54.7c.86-1.66,1.62-3.28-.12-4.11a6.08,6.08,0,0,0-6.13.24,1.47,1.47,0,0,0-.56,1.24c.2.74.79.85,1.53.51C152.56,108.31,154.53,108.39,155.52,111.52Zm17.88-2a1.68,1.68,0,0,0-.77-1.79c-1.56-1-6.22-.62-7.53.69-.6.6-.4,1.14.24,1.59.83.58,1.57,1.16,2.52.07,1.25-1.44,2.56-1.87,4-.07C172.75,111.16,173.14,110.26,173.4,109.56ZM124,98.28c-3.28-2-6.68-2-8.78-.3-.88.73-1.25,1.7-.51,2.56,1.18,1.37,1.27,0,1.81-.77a3.51,3.51,0,0,1,3.9-1.31C121.47,98.71,122.55,99.29,124,98.28Zm15.31,7.61c-2-1.4-3.66-2.18-5.68-2.09a3.69,3.69,0,0,0-2.91,1.64c-.21.29,0,1,.14,1.38.09.23.75.47.75.46C133.47,104.32,136.45,107.15,139.29,105.89Zm-1.65,4.27c.82.83,1.51.11,2.19-.22s1-.91.53-1.57c-.33-.44-.86-.22-1.29.07C138.41,108.86,137.5,109.06,137.63,110.16Z"/><path class="cls-4" d="M298.22,65.12a11.18,11.18,0,0,0,0-2.46c-.65-2.72.85-3.42,3.12-3.76,4-.59,8.14-.77,12.09-1.94,1.6,1.93,3.36-.38,5,.18.46,2.37,2.43,2.38,4.2,2.67a77.25,77.25,0,0,1,17.32,5.35,16.75,16.75,0,0,1,5.76,4.61c1.61,1.78,3.61,2.67,5.77,1.76,4.1-1.73,8.41-2.62,12.68-3.71-.16.81-.31,1.63-.47,2.44-1.14,5.79-1.06,5.91,6,9.31-2.72-5.09-1.66-10-2.44-14.66,1.3.42,2.52,1.2,4,.93a38.6,38.6,0,0,0-.77,5.37c0,4.3,1.78,7,5.68,8.42-1.38-5.87-1.78-11.53,1.07-16.9.26.69.29,1.86,1.47,1.1a10.48,10.48,0,0,0,3.11-3.71A10.22,10.22,0,0,1,391,54.8c-1.25,3.24-3.42,6-4.38,9.44a13.93,13.93,0,0,0,1,10.13c.45.93,1.11,1.74,2.3,1.39a1.76,1.76,0,0,0,1.37-1.86c-.46-3.2.88-6.21.84-9.37a12.88,12.88,0,0,1,3.12-8.68c3.39,0,5-2.73,6.78-4.83,2.77-3.31,6-6.17,8.92-9.29,2.76-2.93,6.71-3.42,10.27-4.63,1.71-.58,2.91.26,3,2.2.07,1.65.07,3.31.1,5-.85.77-1.67,1.59-2.57,2.31a46.92,46.92,0,0,0-16.11,24,8.89,8.89,0,0,1-6.55,6.65c-13.73,4.24-27.68,6.86-42.1,6.64a36.75,36.75,0,0,1-6.43-.64c-14.39-2.77-28.4-6.75-41.66-13.07C305.33,68.49,301.22,68,298.22,65.12Z"/><path class="cls-6" d="M42.18,228.91c3.93.85,6.7,3.72,9.47,6.18a96.83,96.83,0,0,0,11.12,8.38c10.66,7,21,14.58,32.95,19.48,5.7,2.34,11.21,4.16,17.61,4.1a156,156,0,0,0,57.6-12c5.69-2.31,11.56-4.21,17.19-6.64a74.91,74.91,0,0,0,21.37-14.34c.49-.45,1.13-.86,1.37-1.43,2.17-5,6.51-7.25,11.35-8.85.43-.14.73-.65,1.09-1a2,2,0,0,1,.5,0c6,1.29,6.23,1.84,3.54,7.06-7,13.59-17.93,22.56-32.35,27.26-14.72,4.8-29.49,9.58-44.73,12.33a148.43,148.43,0,0,1-47.23.86c-12.67-1.77-24.56-5.84-36.25-10.6-7.77-3.17-14.72-7.89-19.5-15C44.12,239.94,41.31,235,42.18,228.91Z"/><path class="cls-4" d="M106.32,207.83c1.27,3.55,2.46,6.86,5.57,9.67,6.45,5.83,14.79,7.79,22,11.94a8,8,0,0,0,2.9.49c7.86,1,15.64,2.41,23.46,3.66,3.47.56,6.05,1.53,6.6,5.4.11.76,1,.75,1.56,1a65.34,65.34,0,0,1-17.17,2.29c-12.52.32-24.94-.53-36.72-5.45-3.37-1.41-6.72-2.9-10.13-4.21s-5.57-4.25-7.56-7a100.19,100.19,0,0,1-13.58-26.48c-2.33-7-1.44-13.85-.19-20.69a65.65,65.65,0,0,1,5.14-16.59,6.41,6.41,0,0,0,2.75,6c2.74,1.92,3.79,5,4.22,8.17a54.11,54.11,0,0,0,3.9,14.85c1.74,3.94,1.7,8.46,4.09,12.16-4-1.74-6.77-5.26-11.16-8.2,1,2.78,2.54,3.78,3.74,5C98.85,203.05,103,204.94,106.32,207.83Z"/><path class="cls-4" d="M187.26,152.89c-.26-1.05-.64-1.84-2-1.5-3.47.86-6.87.31-10.36-.26a23.7,23.7,0,0,0-12.33.82c-4.51,1.7-9.22,2.78-13.83,4.08a48.24,48.24,0,0,1-16.24,1.78,13.9,13.9,0,0,1-7.3-3c-3.29-2.41-3.7-4.73-1.2-8s6.09-4.56,9.7-5.82c1.43-.5,2.94-.65,3.64-2.24,5.11-.52,10.32.48,15.38-1,1.44-.41,3-.59,4.35-1.1,9.87-3.64,20.18-5.47,30.47-7.42a18.89,18.89,0,0,1,7.44-.26,106.81,106.81,0,0,0,25.18,2.35c.07,0,.15.22.57.85C206.92,135,194.39,139.74,187.26,152.89Z"/><path class="cls-6" d="M182.26,127.91a4.78,4.78,0,0,1,3.45-2.61c5.53-1.63,11-3.86,16.9-3.36,4.08.34,7.29-1.64,10.68-3.26.08,0-.08-.56-.12-.86,1.08-1,2.47-.71,3.75-.9A87.32,87.32,0,0,0,234.24,113c1.57-.57,3.21-1.15,4.17-2.49.48-.66-.72-.67-1.23-.88.48-.51,1.34-1,1.73-.66,2.41,2.36,4,.9,5.67-.94a11.18,11.18,0,0,1,1.87-1.63c2.42-1.72,5.63-2.28,7.5-4.78s3.17-5,5.64-6.76c-1.16-1.51-2.33-1-3.21-.36-2.26,1.54-4.87,2.1-7.38,2.9a10.35,10.35,0,0,1-8.64-1c-2.17-1.26-2.26-2.41-.09-3.49a15.43,15.43,0,0,1,7.63-2c4.46.21,7.84-2.42,11.52-4.23a3.48,3.48,0,0,0,1.84-3.31,3.29,3.29,0,0,1,1.63-2.9c1.35-.83,2.26-2.88,4.17-2.15s1,2.57,1.19,4A3.51,3.51,0,0,0,269.34,85c-.5,7.1-3.1,13.16-9.09,17.73,2,1,3-1.28,5.15-.86-.67,6.39-1.26,12.59-7,17.11-7.1,5.56-15.22,8.06-24,8.72-3.82.28-7.64.36-11.46.78a38.38,38.38,0,0,1-10.83-.85,75.3,75.3,0,0,0-23.37-.36A43.29,43.29,0,0,1,182.26,127.91Z"/><path class="cls-4" d="M265,149a121.82,121.82,0,0,1-23.67-2.05,28.13,28.13,0,0,1,4.22-8.4,7.48,7.48,0,0,1,3.75-3.18,33.69,33.69,0,0,0,9.45-4.49c-.72,1.79-1.47,3.56-2.15,5.36a10.32,10.32,0,0,0-.76,2.86,2.08,2.08,0,0,0,1.15,2.07c1,.46,1.48-.32,2-1a14.06,14.06,0,0,0,2.18-4.46c.65-1.87,1.2-3.77,1.84-5.82a22.83,22.83,0,0,1,7.69,2.24,196.67,196.67,0,0,0,43.56,14c8,1.57,16,3.18,24.08,4.08a129.26,129.26,0,0,0,12.93.71c-2.44,2-5.46.89-8.18,1.4-10.44,1.94-21.11,3.7-31.61,2.33-12-1.56-24.18-.92-35.93-4.37-2.5-.74-5.42-1.79-8.22-.36.49-3.71,2.33-7.22,1.9-11.85C266.16,141.6,264.82,145,265,149Z"/><path class="cls-6" d="M604.31,148.86c1,.77.71,2.16,1.53,3.33a6.69,6.69,0,0,0,3.8-4.1q4.36-11.33,8.52-22.74a8.16,8.16,0,0,0,.1-2.47c4.4,8,7.15,16.43,7.18,25.59,0,6.82-.23,13.63-.36,20.45-1.81-2.77-.56-5.82-.82-8.73-.08-1,.21-2.15-.87-2.65s-1.81.52-2.48,1.19c-2.7,2.69-5.7,5.07-8.46,7.66a45.76,45.76,0,0,1-18.9,10.36,42.4,42.4,0,0,0-10.09,4,4,4,0,0,1-3.81.63c2.66-1.92,4.93-3.63,7.29-5.23a27,27,0,0,0,6.62-6.64c2.73-3.74,5.56-7.42,8.63-10.88,2.47-2.79,2.57-5.56,1-8.68C603.85,149.82,604.09,149.35,604.31,148.86Z"/><path class="cls-4" d="M236.29,145.88a61.52,61.52,0,0,0-16.64,1.65c-3.86.84-7.84.48-11.77,1a120.21,120.21,0,0,1-13.71,1.28c4.72-7.78,12.26-11.5,20.57-13.77,6.86-1.87,13.73-3.67,21-3.6,4.19,0,8.65-.46,12.21-3.46a4.74,4.74,0,0,1,2.29-.86c1.16-.17,2.53-.2,2.89,1.23.28,1.1-.71,1.79-1.58,2.28a8.82,8.82,0,0,1-2.29,1c-5.91,1.35-9.38,5.31-11.58,10.68A27,27,0,0,1,236.29,145.88Z"/><path class="cls-4" d="M504.29,117c-2.39,3.7-6.11,5.45-10.07,6.83-1.13-1.64-2.4-.61-3.51-.08-3.88,1.89-7.7,3.88-11.54,5.84-3.21-1.53-6.19.17-9.06,1-11,3.18-21.66,7.23-32.89,9.43-9.41,1.84-18.83,3.64-28.35,5-6.57.91-13,2.46-19.73,1.8,5-1.93,10.28-2.39,15.44-3.46a400.07,400.07,0,0,0,40.79-11c11.06-3.55,22.24-6.74,33.46-9.77,4.65-1.26,9.22-2.69,13.72-4.34A22.07,22.07,0,0,1,504.29,117Z"/><path class="cls-7" d="M526.28,82c-.45,1-2,1.75-1.33,3,2.6,4.49-.17,8.26-1.44,12.22a21.53,21.53,0,0,1-1.27,2.68c-1.74,1.18-3.83,1.08-5.75,1.52a57.91,57.91,0,0,0-15.75,6.24,15.88,15.88,0,0,1,.18-6.86,44.59,44.59,0,0,0,.49-6.47c.17-6.61.11-6.72,6.35-8.49A97.71,97.71,0,0,1,526.28,82ZM511.64,96.76c-5.31,1.51-7.22,3.31-9,8.13Z"/><path class="cls-6" d="M119.34,105.08c-1.49,1.78-.55,3.07.94,4.13,2,1.44,4.13,2.77,6.18,4.17a29.57,29.57,0,0,1,9.81,10.35c-10.66-1.91-20.27-6-28.18-13.6-1.55-1.49-3-3.35-4.93-4.13-5.13-2.11-6.72-6.36-7.73-11.16,3.41,1.32,6.47-.65,9.7-1,0,1.85.94,1.3,1.9.81a37.57,37.57,0,0,0,6.94,8.45,5.32,5.32,0,0,0,3.45,1.78Z"/><path class="cls-3" d="M84.21,88.87H74.4l-.23-1.82C74,81.3,76.33,77,81.48,74.26a6.7,6.7,0,0,0,2.78-3.33,21.72,21.72,0,0,1,3.36-.75c3.21-.22,6.39-2,9.64-.22.54,2.34,1.53,3.81,4.42,3.42,1.73-.23,4.82,3.18,4.86,4.82a1.68,1.68,0,0,1-1,1.52,8,8,0,0,1-3.74,1.14,120.78,120.78,0,0,0-13.27.69c-4.55.64-5.1,1.15-2.88,5.49l-.38,1.9.09-.08Z"/><path class="cls-8" d="M100.29,116.93a188.58,188.58,0,0,0-22.54,20.43,70.94,70.94,0,0,1-21.61,15c-.24.11-.6,0-.92-.08-.85-.88-.24-1.58.41-2.06,6.48-4.78,11.7-10.83,17-16.78a113.79,113.79,0,0,1,22.48-19.66l1,1c-1.09,1.28-2.71,2.19-2.91,4.1a1.49,1.49,0,0,0-.32.22s0,.16,0,.24l.18-.55c2.39.23,3.17-2.27,5-3C99,115.95,99.85,116,100.29,116.93Z"/><path class="cls-9" d="M72.49,212.73c-1.76.25-3.37,0-4.06-1.88a4.37,4.37,0,0,0-4.13-2.95c3.81-6.26,5.18-6.82,12-4.77,1.41.42,2.79,1.28,4-.28l-.1.09a128,128,0,0,0,14.25,24c-5.87-2.69-9.63-6.33-13.49-9.83A95.93,95.93,0,0,1,70.15,206.2C69.76,208.86,72.47,210.31,72.49,212.73Z"/><path class="cls-3" d="M162.48,121c-.46-.2-1-.68-1.35-.55-4.74,2-9.71-.18-14.6,1-4.2,1-8.06-1.39-11.24-4.2-1.46-1.29-1-2.78.95-3.25,6.15-1.53,12.35-2.17,18.62-.71.32.07.65.3,1,.27,5.26-.56,7.88,2,8.39,7.06Z"/><path class="cls-7" d="M128.44,125.75a23.78,23.78,0,0,1-9.7-1c-2.31-.61-3.46.17-3.48,2.57a8.94,8.94,0,0,1-.89,4.29,38,38,0,0,1-11.26-6.14c-3.21-2.37-3.1-4.06.18-6.55,2.87-2.18,5.54-3,9-.64C117.21,121.66,122.81,123.8,128.44,125.75Z"/><path class="cls-10" d="M63.2,203.79c-1.12-3-1.5-6.56-5.11-8,3.8-3.6,15.58-11.2,19.63-12.65,1,1.13.47,2.46.48,3.72-3.27-.47-5.37,1.42-7.66,3.38,1.52,1.17,2.92.66,4.2.9s.78,1.16.66,1.92a1.31,1.31,0,0,0-.22.87v-.1c-3.28,1.89-6.68,3.52-8.5,7.26C66.1,202.26,64.4,202.9,63.2,203.79Z"/><path class="cls-7" d="M81.29,105.86c1.47-3.36,4.33-5.16,7.43-6.72,1.73-.87,3.74-1.4,4.66-3.4,1.2,2.14,1.1,4.84,3.32,6.51-1.75,2.13-4.48,1.73-5.86,3.94s1.36,4.43-.35,6.75C87,111,83.69,109.08,81.29,105.86Z"/><path class="cls-11" d="M514.23,104.82a3.88,3.88,0,0,1-2.69,3.72c-2.87.78-4.24,2.8-5.25,5.28a6.06,6.06,0,0,1-3.35.82c-1.11,0-2.66.76-3.17-.51-.61-1.52.29-2.87,1.8-3.66C505.66,108.31,509.46,105.47,514.23,104.82Z"/><path class="cls-10" d="M421.27,50.91a53.8,53.8,0,0,1-12,20A36.6,36.6,0,0,1,421.27,50.91Z"/><path class="cls-12" d="M75.4,193c.12-.76.63-1.68-.66-1.92s-2.68.27-4.2-.9c2.29-2,4.39-3.85,7.66-3.38a44.85,44.85,0,0,1,0,6.43c-.36,2.62-1.73,1.88-3,.53v.1c.11-.08.3-.15.31-.23A2.86,2.86,0,0,0,75.4,193Z"/><path class="cls-9" d="M80.31,202.85c-3.39-1.59-6.67-3.56-11.49-2.6,1.52-1.86,2.07-2.87,4.31-2.39,1,.21,2.7-1.42,4.44-.87a2.25,2.25,0,0,1,1.67,1.63c.35,1.43.66,2.88,1,4.32Z"/><path class="cls-13" d="M75.32,94.78c2.18-.1,4.5-2.54,6.59.34-3.21,1.16-3.48,1.29-2.18,4.16.85,1.9-.59,3.07-.52,4.61C77,101.23,75.43,98.32,75.32,94.78Z"/><path class="cls-14" d="M100.29,116.93c-.45-.89-1.31-1-2.14-1.13.79-1.53,2.83-2,3.18-3.93l-.07.07c1.69.17,3.09.75,3.66,2.66A8.76,8.76,0,0,1,100.29,116.93Z"/><path class="cls-15" d="M192.35,42c-3.24,2.37-6.2,5.23-10.46,5.9,3.1-2.37,5.8-5.25,9.42-6.9Z"/><path class="cls-6" d="M269.34,85l.07-14.31A24.57,24.57,0,0,1,269.34,85Z"/><path class="cls-16" d="M96.16,114.75l-1-1c1.14-1.74,3-2.46,4.77-3.18,1.25-.49,1.11.69,1.33,1.37l.07-.07C99,111.76,98,114.07,96.16,114.75Z"/><path class="cls-4" d="M202.3,257.11a1.13,1.13,0,0,1-1.14.69A1,1,0,0,1,202.3,257.11Z"/><path class="cls-17" d="M481.18,252.68c6.51-.66,12.57-3,18.81-4.75,14.57-4,29.2-7.86,43.41-13.15a256.31,256.31,0,0,0,33.17-15c10.29-5.59,19.63-12.54,29.31-19a55.94,55.94,0,0,0,7.78-6.94c.87,1.84-.28,2.61-1,3.35a45.33,45.33,0,0,1-5.16,4.71c-19.72,14.72-40.95,26.54-64.32,34.62-21.24,7.35-42.85,13.3-64.63,18.63a402.5,402.5,0,0,1-51.94,9.39c-14.36,1.57-28.73,3.05-43.21,3.62-31.13,1.22-62.27.56-93.41.91-12,.14-23.81-2-35.67-3.59a2.92,2.92,0,0,1-1.78-1.14c3.3.27,6.63.3,9.85.77a297.84,297.84,0,0,0,57.8,2.39c20.16-1,40.32-.16,60.46-.77,11-.33,21.88-1.4,32.8-2.53,9.1-.95,18.16-2.12,27.22-3.38,3.25-.46,6.6-.5,9.67-1.9,8.27-.41,16.08-3.19,24.15-4.64C476.74,253.91,478.95,253.23,481.18,252.68Z"/><path class="cls-18" d="M449.14,143.69a559.89,559.89,0,0,1-68.6,14.91,218,218,0,0,1-44.3,2.17,9.11,9.11,0,0,1-1.58-.53c5.51-.34,10.38-.75,15.27-.94,32.6-1.21,64.18-8.42,95.65-16.25.8-.2,1.64-.26,2.47-.39Z"/><path class="cls-19" d="M106.32,207.83c-3.35-2.9-7.47-4.78-10.57-8-1.2-1.25-2.74-2.25-3.74-5,4.4,2.94,7.16,6.46,11.16,8.2,9.17,7.45,19.89,11.93,30.79,16.06a103.26,103.26,0,0,1,10.51,4.32C130.72,220.77,118.26,214.95,106.32,207.83Z"/><path class="cls-19" d="M604.31,148.86c-.22.49-.46,1-1.08,1.06-3.16-5.89-8.26-9.9-13.51-13.7a139.62,139.62,0,0,0-20.26-12.62,41.34,41.34,0,0,1-4.17-2.68l-.05.07a6.49,6.49,0,0,1,3.84.74,118.44,118.44,0,0,1,28.76,18.44A24.54,24.54,0,0,1,604.31,148.86Z"/><path class="cls-19" d="M479.17,129.62c3.84-2,7.67-3.95,11.54-5.84,1.1-.54,2.38-1.57,3.51.08-6.16,2.7-11.77,6.54-18.33,9.11C476.1,130.58,478,130.49,479.17,129.62Z"/><path class="cls-20" d="M265,149c-.17-4,1.17-7.36,4.23-10.9.43,4.63-1.41,8.14-1.9,11.85C265.8,151.41,265.55,149.8,265,149Z"/><path class="cls-21" d="M449.14,143.69l-1.1-1c4.82-2.1,10-2.74,15.13-3.37C458.82,141.79,453.9,142.49,449.14,143.69Z"/><polygon class="cls-19" points="565.29 120.92 565.12 120.76 565.24 120.99 565.29 120.92"/><path class="cls-22" d="M395.24,55.86a12.88,12.88,0,0,0-3.12,8.68c0,3.16-1.3,6.17-.84,9.37a1.76,1.76,0,0,1-1.37,1.86c-1.19.34-1.85-.46-2.3-1.39a13.93,13.93,0,0,1-1-10.13c1-3.4,3.13-6.2,4.38-9.44a33.15,33.15,0,0,1,15-15.35C403,46,398,50.26,395.24,55.86Z"/><path class="cls-23" d="M377.16,62.74c-2.85,5.37-2.45,11-1.07,16.9-3.89-1.43-5.71-4.12-5.68-8.42a38.6,38.6,0,0,1,.77-5.37c2.31-4.41,4.29-9.08,9.35-12.48C380.18,57.42,377.69,59.73,377.16,62.74Z"/><path class="cls-18" d="M367.19,64.92c.79,4.69-.28,9.57,2.44,14.66-7-3.39-7.11-3.52-6-9.31.16-.81.31-1.63.47-2.44C365,66.67,365.2,64.88,367.19,64.92Z"/><path class="cls-24" d="M318.39,57.15c-1.65-.56-3.41,1.75-5-.18,10.43-2.65,21-4.13,31.86-3.19Z"/><path class="cls-25" d="M361,63c-3.28,2.06-3.28,2.06-22-2.78,2.53-1.07,3-1.08,10.45,1A46.33,46.33,0,0,0,361,63Z"/><path class="cls-1" d="M622.21,201.82l-.41,1c0-.12-.14-.29-.09-.35a6.5,6.5,0,0,1,.59-.62Z"/><path class="cls-26" d="M194.56,66.21c5.07.24,9,.79,12.16,3.62,8.81,7.85,7,19.58-3.86,24.73a20.37,20.37,0,0,1-10.65,1.92,15.9,15.9,0,0,1-13.67-19.84c1.53-5.4,5.8-7.9,10.66-9.5A14.29,14.29,0,0,1,194.56,66.21Zm2.51,5.6c2.49,2.7,4.54,5.08,4.92,8.31.27,2.35,1.43,3.25,3.37,2.38a5,5,0,0,0,2.37-5.86C206.39,72.21,202.69,70.35,197.07,71.8Zm9.85,16.64c-2.59.69-5,2-7.53,2.81-2.79.86-5.77-1.09-8.72.62C196.07,95.17,202.39,93.87,206.92,88.44Zm-9.81-7.62a1.7,1.7,0,0,0,1.82-1.46,1.83,1.83,0,0,0-1.39-2.22c-1.07-.29-1.38.64-1.44,1.43S195.93,80.57,197.11,80.82Z"/><path class="cls-27" d="M237.19,109.66c.51.2,1.7.21,1.23.88-1,1.34-2.6,1.92-4.17,2.49a87.32,87.32,0,0,1-17.32,3.89c-1.28.19-2.67-.12-3.75.9-6.83.8-13.3-1.64-20-2.17.38-1.19,1.77-.82,2.34-1.64,4.08.51,8.16,1.09,12.25,1.5a26.08,26.08,0,0,0,6.37-.39A141.06,141.06,0,0,0,237.19,109.66Z"/><path class="cls-28" d="M164.82,70.73c1.09-1.86,2.75-1.93,4.1-2.4,5.69-2,9.51-5.31,8.82-12.26,2.45,2.43,2.67,3.09,1.92,5C177.47,66.68,171.84,70.44,164.82,70.73Z"/><path class="cls-29" d="M159.19,74.81c.89,3.39,4.39,5.62,4.6,10.37-3.58-3.38-4.64-7.54-7.64-10.19l1.21-1.2,1.89,1.11Z"/><path class="cls-30" d="M157.36,73.78,156.15,75c-2.5-2.27-6-2.55-8.68-4.5C151,70.77,154.53,71.18,157.36,73.78Z"/><path class="cls-29" d="M159.25,74.89c2.31-1.64,3.59.89,5.35,1.42.52.16.3,1.17-.24,1.65s-1.13.69-1.71.11c-1.13-1.12-1.78-2.73-3.45-3.27Z"/><path class="cls-31" d="M202,97.11l7.79-3.53c-2.12,3.71-4.81,3.81-7.21,4.45Z"/><path class="cls-32" d="M274.21,104.93c3.28.93,5.44,3.58,8.17,5.36,2.07,1.34,4,3,6,4.45l.07.06c6,7.22,14,11.29,22.74,14.2-.45.74-1.24.8-2,1-8.77-2.15-16.45-6.06-22.32-13.19a47.61,47.61,0,0,0-8.54-7.63c-1.59-1.19-3.26-2.32-4-4.29Z"/><path class="cls-33" d="M271.8,107.19c3.78,6.74,6.58,13.81,7.36,21.55l-1.11.37-7.22-21.6Z"/><path class="cls-34" d="M309.17,130c.74-.16,1.52-.23,2-1L326,132.9A37.4,37.4,0,0,1,309.17,130Z"/><path class="cls-35" d="M290.38,128.8a16.77,16.77,0,0,1-2.47-8.11c1.64,2.15,3.25,4.27,3.46,7.08Z"/><path class="cls-36" d="M290.38,128.8l1-1a13.71,13.71,0,0,1,2.94,7C291.77,132.94,291.15,130.82,290.38,128.8Z"/><path class="cls-32" d="M274.29,104.85a1.55,1.55,0,0,1-.42-.18c-.06,0,0-.21,0-.32q.47-.05.38.57Z"/><path class="cls-37" d="M97.25,70c-3.25-1.8-6.43,0-9.64.22a21.72,21.72,0,0,0-3.36.75c-.4-.17-1.29-.39-.91-.72A4.56,4.56,0,0,1,86,69.1c2.52-.06,4.82-1,7.25-1.4l.49.06.49-.06C105.86,68.79,114.94,75,123.69,82c-1.85.6-2.9-.82-4.14-1.58-5.65-3.49-11-7.44-17.47-9.47C100.5,70.45,99,69.72,97.25,70Z"/><path class="cls-38" d="M107,94.63c-1,.49-1.94,1-1.9-.81l5-3.3c-.75-2.18-1.7-3.74-4.29-3.11s.27,3-1.37,4.15c-1.76-.71-3.29-1.7-2.51-4,.68-2,5-2.89,7.1-1.54a9.74,9.74,0,0,1,2.32,2.54c1.21,1.67,1,3.19-1,4A7,7,0,0,0,107,94.63Z"/><path class="cls-39" d="M155.52,111.52c-1-3.14-3-3.21-5.28-2.12-.74.35-1.33.23-1.53-.51a1.47,1.47,0,0,1,.56-1.24,6.08,6.08,0,0,1,6.13-.24C157.14,108.24,156.38,109.87,155.52,111.52Z"/><path class="cls-25" d="M173.4,109.56c-.26.69-.65,1.6-1.53.49-1.44-1.8-2.75-1.37-4,.07-.95,1.09-1.69.51-2.52-.07-.65-.45-.84-1-.24-1.59,1.31-1.31,6-1.74,7.53-.69A1.68,1.68,0,0,1,173.4,109.56Z"/><path class="cls-40" d="M124,98.28c-1.42,1-2.5.42-3.58.18a3.51,3.51,0,0,0-3.9,1.31c-.54.78-.62,2.14-1.81.77-.74-.86-.37-1.83.51-2.56C117.29,96.24,120.7,96.28,124,98.28Z"/><path class="cls-41" d="M119.34,105.08l-1.93-.23c1.9-3,6.12-.76,7.87-4.08C124.65,104.75,124.63,104.76,119.34,105.08Z"/><path class="cls-42" d="M139.29,105.89c-2.83,1.26-5.81-1.57-7.7,1.39,0,0-.67-.23-.75-.46-.16-.43-.35-1.09-.14-1.38a3.69,3.69,0,0,1,2.91-1.64C135.63,103.71,137.28,104.49,139.29,105.89Z"/><path class="cls-43" d="M85.21,88.92l.38-1.9c2.36-.18,4.06.73,5.32,3.26C88.61,90.49,87.23,88.11,85.21,88.92Z"/><path class="cls-43" d="M84.21,88.87l1.08,0c-.6,2.31,2.41,2,2.72,3.68C83.34,92.85,83.13,92.65,84.21,88.87Z"/><path class="cls-44" d="M137.63,110.16c-.13-1.1.78-1.3,1.43-1.73.43-.29,1-.5,1.29-.07.5.66.12,1.25-.53,1.57S138.45,111,137.63,110.16Z"/><path class="cls-3" d="M94.24,67.7l-.49.06-.49-.06c.12-.38,0-1,.67-.83C94.1,66.92,94.15,67.41,94.24,67.7Z"/><path class="cls-20" d="M511.64,96.76l-9,8.13C504.42,100.07,506.33,98.27,511.64,96.76Z"/><path class="cls-1" d="M96.16,114.75c1.88-.68,2.85-3,5.17-2.88-.35,1.89-2.38,2.41-3.18,3.93-1.85.69-2.63,3.19-5,3l.11.09C93.44,116.94,95.07,116,96.16,114.75Z"/><path class="cls-1" d="M93.14,118.76l-.18.55c0-.08-.07-.2,0-.24a1.49,1.49,0,0,1,.32-.22Z"/><path class="cls-1" d="M75.4,193a2.86,2.86,0,0,1,.09.64c0,.08-.2.15-.31.23A1.31,1.31,0,0,1,75.4,193Z"/><path class="cls-45" d="M197.07,71.8c5.62-1.46,9.33.41,10.66,4.83a5,5,0,0,1-2.37,5.86c-1.93.87-3.09,0-3.37-2.38C201.61,76.88,199.56,74.5,197.07,71.8Z"/><path class="cls-6" d="M206.92,88.44c-4.53,5.43-10.85,6.73-16.25,3.44,2.95-1.71,5.93.23,8.72-.62C201.95,90.47,204.33,89.14,206.92,88.44Z"/><path class="cls-46" d="M197.11,80.82c-1.18-.25-1.1-1.32-1-2.25s.37-1.72,1.44-1.43a1.83,1.83,0,0,1,1.39,2.22A1.7,1.7,0,0,1,197.11,80.82Z"/></svg>